# xmcd
#
# Track frame offsets:
#	150
#	20845
#	39435
#	70697
#	88990
#	106375
#	132300
#	158355
#	173002
#	188502
#	212252
#	243970
#	263447
#	285932
#	310090
#	330960
#
# Disc length: 4682
#
# Revision: 1
# Processed by: cddbd v1.5.1PL0 Copyright (c) Steve Scherf et al.
# Submitted via: CDex 1.60beta1
# Normalized: r0:DSETVAR1
#
DISCID=c1124810
DTITLE=Various Artist - One Nation Under The Blues-90s
DYEAR=0
DGENRE=Blues
TTITLE0=Luther Allison - I Believe In You
TTITLE1=Taj Mahal - You Rascal You
TTITLE2=Mighty Mcclain Sam - A Soul That'S Been Abused
TTITLE3=James Cotton - Hold Me In Your Arms
TTITLE4=Thomas King - We'Re Gonna Make It
TTITLE5=Johnny Adams - Walking On A Tightrope
TTITLE6=Charlie Musselwhite - Movin' and Groovin'
TTITLE7=Ball/Strehli/Barton - A Fool In Love
TTITLE8=Snooks Eaglin - Black Night
TTITLE9=Magic Slim and The Teardrops - Lookin' For A Lover
TTITLE10=William Clarke - Must Be Jelly
TTITLE11=Koko Taylor - Jump For Joy
TTITLE12=Junior Wells - Trust My Baby
TTITLE13=Ruth Brown - If I Can'T Sell It I'Ll Keep Sittin' On It
TTITLE14=John Mayall - Spinning Coin
TTITLE15=Buddy Guy - Damn Right I'Ve Got The Blues
EXTD=YEAR: 0
EXTT0=
EXTT1=
EXTT2=
EXTT3=
EXTT4=
EXTT5=
EXTT6=
EXTT7=
EXTT8=
EXTT9=
EXTT10=
EXTT11=
EXTT12=
EXTT13=
EXTT14=
EXTT15=
PLAYORDER=
